<svg width="0" height="0" class="hidden">
  
  <symbol fill="inherit" xmlns="http://www.w3.org/2000/svg" viewBox="0 0 24 24" id="chat-icon">
    <path fill-rule="evenodd" clip-rule="evenodd" d="M21.923 10.5674C21.7806 11.5541 21.443 12.4919 20.9428 13.3544C20.9803 13.5679 20.9995 13.7837 20.9995 14.0005C20.9995 14.7533 20.7814 15.4738 20.3774 16.1284C20.1757 16.4551 20.1238 16.838 20.1038 17.0909C20.0809 17.3808 20.0886 17.6981 20.1093 18.0028C20.1325 18.3447 20.1746 18.7036 20.2227 19.0422C19.8324 18.9284 19.4093 18.8141 19.0056 18.723C18.6698 18.6472 18.3262 18.5826 18.0149 18.5505C17.7434 18.5224 17.3511 18.5007 17.0003 18.6142C16.2332 18.8621 15.3891 19.0005 14.4995 19.0005C13.4416 19.0005 12.47 18.8127 11.6184 18.4865C11.4135 18.4957 11.2072 18.5005 10.9995 18.5005C9.7949 18.5005 8.63552 18.342 7.55078 18.0493C9.12774 19.8731 11.7274 21.0005 14.4995 21.0005C15.5825 21.0005 16.6219 20.8342 17.5797 20.5287C17.5814 20.5287 17.5845 20.5287 17.589 20.5286C17.6136 20.5281 17.6819 20.5267 17.8094 20.5399C18.01 20.5606 18.268 20.6068 18.5655 20.674C19.1578 20.8076 19.8235 21.0048 20.3423 21.1694C21.4424 21.5187 22.5084 20.5586 22.3118 19.4422C22.2271 18.9617 22.1392 18.3753 22.1047 17.8673C22.0874 17.6118 22.0855 17.4022 22.0976 17.2483C22.1026 17.1845 22.1091 17.1446 22.1132 17.1233C22.6758 16.1913 22.9995 15.1302 22.9995 14.0005C22.9995 12.7269 22.604 11.5639 21.923 10.5674Z" fill="inherit"></path>
    <path fill-rule="evenodd" clip-rule="evenodd" d="M5.59664 5.69816C4.24868 6.72895 3.49959 8.08209 3.49959 9.5C3.49959 10.207 3.68366 10.888 4.02898 11.5212C4.1605 11.7624 4.19782 12.0112 4.21116 12.1796C4.22571 12.3633 4.21845 12.552 4.20248 12.7285C4.17051 13.0819 4.09423 13.4823 4.00274 13.8766C3.89572 14.3379 3.75859 14.8299 3.61943 15.2918C4.14769 15.0998 4.72505 14.903 5.2724 14.7434C5.71477 14.6143 6.16151 14.5023 6.55911 14.4394C6.90162 14.3853 7.39864 14.3321 7.82655 14.4801C8.78688 14.8123 9.86117 15 10.9996 15C13.1468 15 15.0537 14.3333 16.4026 13.3018C17.7505 12.271 18.4996 10.9179 18.4996 9.5C18.4996 8.08209 17.7505 6.72895 16.4026 5.69816C15.0537 4.66667 13.1468 4 10.9996 4C8.85242 4 6.94552 4.66667 5.59664 5.69816ZM4.38174 4.10945C6.10925 2.78841 8.45234 2 10.9996 2C13.5468 2 15.8899 2.78841 17.6175 4.10945C19.3459 5.43119 20.4996 7.32806 20.4996 9.5C20.4996 11.6719 19.3459 13.5688 17.6175 14.8906C15.8899 16.2116 13.5468 17 10.9996 17C9.65654 17 8.37366 16.7811 7.20886 16.3826C7.2077 16.3859 7.11322 16.3767 6.87147 16.4149C6.59282 16.459 6.23713 16.5453 5.83253 16.6633C5.02707 16.8983 4.12252 17.2308 3.43353 17.4989C2.2399 17.9634 1.02395 16.8171 1.42611 15.5959C1.63926 14.9487 1.89065 14.1308 2.05449 13.4246C2.13702 13.0689 2.19058 12.7698 2.21062 12.5483C2.21758 12.4714 2.21938 12.4154 2.21897 12.3775C1.75869 11.4979 1.49959 10.5252 1.49959 9.5C1.49959 7.32806 2.6533 5.43119 4.38174 4.10945Z" fill="inherit"></path>
  </symbol>
 
  <symbol fill="inherit" xmlns="http://www.w3.org/2000/svg" viewBox="0 0 24 24" id="heart-icon">
    <path fill-rule="evenodd" clip-rule="evenodd" d="M11.9989 19.9072C7.39982 17.2878 4.83476 14.6843 3.5944 12.4254C2.32488 10.1134 2.43565 8.16615 3.14011 6.7841C4.58808 3.94337 8.70568 3.03499 11.2144 6.20797L11.9988 7.20002L12.7833 6.20802C15.2925 3.03491 19.4103 3.94344 20.8582 6.7841C21.5627 8.16613 21.6734 10.1134 20.4038 12.4254C19.1633 14.6843 16.5981 17.2878 11.9989 19.9072ZM11.9989 4.10589C8.46971 0.752278 3.26332 2.13832 1.35823 5.87584C0.31269 7.92706 0.298408 10.5782 1.8413 13.388C3.3705 16.173 6.4194 19.1125 11.5151 21.929L11.9989 22.1964L12.4826 21.9291C17.5785 19.1126 20.6276 16.173 22.1569 13.3881C23.6999 10.5782 23.6856 7.92708 22.6401 5.87584C20.735 2.13825 15.5284 0.752328 11.9989 4.10589Z" fill="inherit"></path>
  </symbol>


  <symbol fill="inherit" xmlns="http://www.w3.org/2000/svg" viewBox="0 0 24 24" id="mark-icon">
    <path fill-rule="evenodd" clip-rule="evenodd" d="M21.7071 5.29289C22.0976 5.68342 22.0976 6.31658 21.7071 6.70711L9.70711 18.7071C9.31658 19.0976 8.68342 19.0976 8.29289 18.7071L2.29289 12.7071C1.90237 12.3166 1.90237 11.6834 2.29289 11.2929C2.68342 10.9024 3.31658 10.9024 3.70711 11.2929L9 16.5858L20.2929 5.29289C20.6834 4.90237 21.3166 4.90237 21.7071 5.29289Z" fill="inherit"></path>
  </symbol>

  <symbol fill="inherit" xmlns="http://www.w3.org/2000/svg" viewBox="0 0 24 24" id="messanger-icon">
    <path d="M12 2C6.4775 2 2 6.145 2 11.2587C2 14.1725 3.45375 16.7712 5.72625 18.4688V22L9.13125 20.1313C10.04 20.3825 11.0025 20.5187 12 20.5187C17.5225 20.5187 22 16.3737 22 11.26C22 6.14625 17.5225 2 12 2ZM12.9937 14.4688L10.4475 11.7525L5.47875 14.4688L10.945 8.66625L13.5538 11.3825L18.46 8.66625L12.9937 14.4688Z" fill="inherit"></path>
  </symbol>

  <symbol fill="inherit" xmlns="http://www.w3.org/2000/svg" viewBox="0 0 24 24" id="cross-icon">
    <path fill-rule="evenodd" clip-rule="evenodd" d="M4.29289 4.29289C4.68342 3.90237 5.31658 3.90237 5.70711 4.29289L12 10.5858L18.2929 4.29289C18.6834 3.90237 19.3166 3.90237 19.7071 4.29289C20.0976 4.68342 20.0976 5.31658 19.7071 5.70711L13.4142 12L19.7071 18.2929C20.0976 18.6834 20.0976 19.3166 19.7071 19.7071C19.3166 20.0976 18.6834 20.0976 18.2929 19.7071L12 13.4142L5.70711 19.7071C5.31658 20.0976 4.68342 20.0976 4.29289 19.7071C3.90237 19.3166 3.90237 18.6834 4.29289 18.2929L10.5858 12L4.29289 5.70711C3.90237 5.31658 3.90237 4.68342 4.29289 4.29289Z" fill="inherit"></path>
  </symbol>

  <symbol fill="inherit" xmlns="http://www.w3.org/2000/svg" viewBox="0 0 24 24" id="phone-icon">
    <path fill-rule="evenodd" clip-rule="evenodd" d="M8.5 2.92188C7.67157 2.92188 7 3.59345 7 4.42188V19.5781C7 20.4066 7.67157 21.0781 8.5 21.0781H15.5C16.3284 21.0781 17 20.4066 17 19.5781V4.42188C17 3.59345 16.3284 2.92188 15.5 2.92188H15.4166L15.1731 3.50633C15.0178 3.87894 14.6537 4.12165 14.25 4.12165H9.75C9.34632 4.12165 8.98223 3.87894 8.82695 3.50633L8.58338 2.92188H8.5ZM5 4.42188C5 2.48888 6.567 0.921875 8.5 0.921875H15.5C17.433 0.921875 19 2.48888 19 4.42188V19.5781C19 21.5111 17.433 23.0781 15.5 23.0781H8.5C6.567 23.0781 5 21.5111 5 19.5781V4.42188Z" fill="inherit"></path>
  </symbol>


  <symbol fill="inherit" xmlns="http://www.w3.org/2000/svg" viewBox="0 0 24 24" id="plus-icon">
    <path fill-rule="evenodd" clip-rule="evenodd" d="M12 1C12.5523 1 13 1.44772 13 2V11H22C22.5523 11 23 11.4477 23 12C23 12.5523 22.5523 13 22 13H13V22C13 22.5523 12.5523 23 12 23C11.4477 23 11 22.5523 11 22V13H2C1.44772 13 1 12.5523 1 12C1 11.4477 1.44772 11 2 11H11V2C11 1.44772 11.4477 1 12 1Z" fill="inherit"></path>
  </symbol>

  <symbol fill="inherit" xmlns="http://www.w3.org/2000/svg" viewBox="0 0 24 24" id="arrow-up-icon">
    <path fill-rule="evenodd" clip-rule="evenodd" d="M6.79289 9.20711C6.40237 8.81658 6.40237 8.18342 6.79289 7.79289L11.2929 3.29289C11.6834 2.90237 12.3166 2.90237 12.7071 3.29289L17.2071 7.79289C17.5976 8.18342 17.5976 8.81658 17.2071 9.20711C16.8166 9.59763 16.1834 9.59763 15.7929 9.20711L13 6.41421V20C13 20.5523 12.5523 21 12 21C11.4477 21 11 20.5523 11 20V6.41421L8.20711 9.20711C7.81658 9.59763 7.18342 9.59763 6.79289 9.20711Z" fill="inherit"></path>
  </symbol>

 
  <symbol fill="inherit" xmlns="http://www.w3.org/2000/svg" viewBox="0 0 24 24" id="down-chevron-icon">
    <path fill-rule="evenodd" clip-rule="evenodd" d="M19.7071 8.29289C20.0976 8.68342 20.0976 9.31658 19.7071 9.70711L12.7071 16.7071C12.3166 17.0976 11.6834 17.0976 11.2929 16.7071L4.29289 9.70711C3.90237 9.31658 3.90237 8.68342 4.29289 8.29289C4.68342 7.90237 5.31658 7.90237 5.70711 8.29289L12 14.5858L18.2929 8.29289C18.6834 7.90237 19.3166 7.90237 19.7071 8.29289Z" fill="inherit"></path>
  </symbol>


  <symbol fill="inherit" xmlns="http://www.w3.org/2000/svg" viewBox="0 0 24 24" id="clock-icon">
    <path d="M13 6.5C13 5.94772 12.5523 5.5 12 5.5C11.4477 5.5 11 5.94772 11 6.5V12C11 12.2652 11.1054 12.5196 11.2929 12.7071L14.2929 15.7071C14.6834 16.0976 15.3166 16.0976 15.7071 15.7071C16.0976 15.3166 16.0976 14.6834 15.7071 14.2929L13 11.5858V6.5Z" fill="inherit"></path>
    <path fill-rule="evenodd" clip-rule="evenodd" d="M12 1C5.92487 1 1 5.92487 1 12C1 18.0751 5.92487 23 12 23C18.0751 23 23 18.0751 23 12C23 5.92487 18.0751 1 12 1ZM3 12C3 7.02944 7.02944 3 12 3C16.9706 3 21 7.02944 21 12C21 16.9706 16.9706 21 12 21C7.02944 21 3 16.9706 3 12Z" fill="inherit"></path>
  </symbol>

  <symbol fill="inherit" xmlns="http://www.w3.org/2000/svg" viewBox="0 0 24 24" id="minus-icon">
    <path fill-rule="evenodd" clip-rule="evenodd" d="M1 12C1 11.4477 1.44772 11 2 11V12V13C1.44772 13 1 12.5523 1 12ZM22 12L21.9999 13H2V12V11H21.9994L22 12ZM22 12L21.9999 13C22.5522 13 23 12.5523 23 12C23 11.4477 22.5517 11 21.9994 11L22 12Z" fill="inherit"></path>
  </symbol>

  <symbol fill="inherit" xmlns="http://www.w3.org/2000/svg" viewBox="0 0 24 24" id="facebook-icon">
    <path d="M17.5628 1.00458L14.7856 1C11.6654 1 9.64903 3.12509 9.64903 6.41423V8.91055H6.85662C6.61532 8.91055 6.41992 9.1115 6.41992 9.35937V12.9763C6.41992 13.2241 6.61554 13.4249 6.85662 13.4249H9.64903V22.5514C9.64903 22.7993 9.84443 23 10.0857 23H13.729C13.9703 23 14.1657 22.799 14.1657 22.5514V13.4249H17.4307C17.672 13.4249 17.8674 13.2241 17.8674 12.9763L17.8688 9.35937C17.8688 9.24036 17.8226 9.12638 17.7409 9.04215C17.6591 8.95793 17.5477 8.91055 17.4318 8.91055H14.1657V6.79439C14.1657 5.77728 14.4017 5.26094 15.6915 5.26094L17.5624 5.26025C17.8035 5.26025 17.9989 5.0593 17.9989 4.81166V1.45317C17.9989 1.20576 17.8037 1.00504 17.5628 1.00458Z" fill="inherit"></path>
  </symbol>

  
  <symbol fill="inherit" xmlns="http://www.w3.org/2000/svg" viewBox="0 0 24 24" id="twitter-icon">
    <path d="M22.5 5.77233C21.7271 6.10027 20.8978 6.32267 20.0264 6.42196C20.9161 5.91181 21.5972 5.10263 21.92 4.1414C21.0854 4.61383 20.1642 4.95688 19.1826 5.14285C18.3966 4.33994 17.2785 3.83984 16.0384 3.83984C13.6593 3.83984 11.7303 5.68691 11.7303 7.9637C11.7303 8.2866 11.7683 8.60199 11.8418 8.90357C8.26201 8.73141 5.08768 7.08917 2.96314 4.59372C2.59176 5.20189 2.38049 5.91053 2.38049 6.66697C2.38049 8.09814 3.14161 9.36093 4.2964 10.0997C3.5904 10.0771 2.92639 9.89116 2.34508 9.58205V9.63357C2.34508 11.6314 3.83056 13.2988 5.80024 13.6783C5.43936 13.7713 5.05882 13.8228 4.66514 13.8228C4.38696 13.8228 4.11794 13.7964 3.85417 13.7461C4.40267 15.3859 5.99315 16.5783 7.87756 16.611C6.40388 17.7167 4.54573 18.3739 2.52749 18.3739C2.17976 18.3739 1.83724 18.3537 1.5 18.3173C3.40671 19.4896 5.67036 20.1732 8.10327 20.1732C16.028 20.1732 20.3597 13.8881 20.3597 8.43741L20.3453 7.90341C21.1917 7.32537 21.9239 6.59912 22.5 5.77233Z" fill="inherit"></path>
  </symbol>


  <symbol fill="inherit" xmlns="http://www.w3.org/2000/svg" viewBox="0 0 24 24" id="closedeye-icon">
    <path fill-rule="evenodd" clip-rule="evenodd" d="M8.21776 18.959C8.74757 19.115 9.30349 18.8119 9.45944 18.2821L10.1859 15.8142C11.3895 16.0615 12.611 16.0615 13.8147 15.8143L14.5408 18.282C14.6967 18.8118 15.2526 19.115 15.7824 18.9591C16.3122 18.8032 16.6154 18.2473 16.4595 17.7175L15.7209 15.2074C16.7093 14.7775 17.6626 14.1765 18.5643 13.413L20.261 15.2748C20.633 15.683 21.2655 15.7123 21.6737 15.3403C22.0819 14.9683 22.1112 14.3358 21.7392 13.9276L19.9958 12.0146C20.6512 11.2825 21.2709 10.4533 21.8481 9.52974C22.1408 9.0614 21.9985 8.44445 21.5301 8.15174C21.0618 7.85903 20.4448 8.00141 20.1521 8.46974C19.4568 9.58221 18.7082 10.5192 17.928 11.2869C16.731 12.4644 15.4632 13.2404 14.1935 13.6493C12.7435 14.1164 11.2572 14.1164 9.80713 13.6493C8.53747 13.2404 7.26954 12.4644 6.0726 11.2869C5.29219 10.5191 4.54341 9.58218 3.84813 8.46974C3.55542 8.0014 2.93847 7.85903 2.47013 8.15174C2.0018 8.44445 1.85943 9.0614 2.15214 9.52974C2.72945 10.4534 3.34927 11.2825 4.00467 12.0146L2.26107 13.9275C1.88903 14.3357 1.91832 14.9682 2.32649 15.3402C2.73467 15.7123 3.36715 15.683 3.73919 15.2748L5.43627 13.4129C6.33794 14.1764 7.29125 14.7774 8.27966 15.2074L7.54083 17.7174C7.38488 18.2472 7.68795 18.8031 8.21776 18.959Z" fill="inherit"></path>
  </symbol>

  <symbol fill="inherit" xmlns="http://www.w3.org/2000/svg" viewBox="0 0 24 24" id="search-icon">
    <path fill-rule="evenodd" clip-rule="evenodd" d="M10.875 3.25C6.66383 3.25 3.25 6.66383 3.25 10.875C3.25 15.0862 6.66383 18.5 10.875 18.5C12.9789 18.5 14.8822 17.6492 16.2628 16.2706C17.646 14.8893 18.5 12.9828 18.5 10.875C18.5 6.66383 15.0862 3.25 10.875 3.25ZM1.25 10.875C1.25 5.55926 5.55926 1.25 10.875 1.25C16.1907 1.25 20.5 5.55926 20.5 10.875C20.5 13.1742 19.6928 15.2863 18.348 16.9413L22.4565 21.0422C22.8473 21.4324 22.8479 22.0656 22.4578 22.4565C22.0676 22.8473 21.4344 22.8479 21.0435 22.4578L16.933 18.3547C15.2792 19.6955 13.1703 20.5 10.875 20.5C5.55926 20.5 1.25 16.1907 1.25 10.875Z" fill="inherit"></path>
  </symbol>

  <symbol fill="inherit" xmlns="http://www.w3.org/2000/svg" viewBox="0 0 24 24" id="burger-menu">
    <path fill-rule="evenodd" clip-rule="evenodd" d="M1 12C1 11.4477 1.44772 11 2 11H22C22.5523 11 23 11.4477 23 12C23 12.5523 22.5523 13 22 13H2C1.44772 13 1 12.5523 1 12Z" fill="inherit"></path>
    <path fill-rule="evenodd" clip-rule="evenodd" d="M1 18C1 17.4477 1.44772 17 2 17H22C22.5523 17 23 17.4477 23 18C23 18.5523 22.5523 19 22 19H2C1.44772 19 1 18.5523 1 18Z" fill="inherit"></path>
    <path fill-rule="evenodd" clip-rule="evenodd" d="M1 6C1 5.44772 1.44772 5 2 5H22C22.5523 5 23 5.44772 23 6C23 6.55228 22.5523 7 22 7H2C1.44772 7 1 6.55228 1 6Z" fill="inherit"></path>
  </symbol>

  
  <symbol fill="inherit" xmlns="http://www.w3.org/2000/svg" viewBox="0 0 24 24" id="whatsapp-icon">
    <path d="M22 11.7424C22 17.1231 17.6047 21.4849 12.1818 21.4849C10.4602 21.4849 8.84289 21.0449 7.43578 20.2727L2 22L3.77222 16.7729C2.87822 15.3049 2.36333 13.5831 2.36333 11.7424C2.36333 6.36178 6.75911 2 12.1818 2C17.6051 2 22 6.36178 22 11.7424ZM12.1818 3.55156C7.62978 3.55156 3.92711 7.226 3.92711 11.7424C3.92711 13.5347 4.51133 15.1944 5.49956 16.5447L4.46822 19.5867L7.64044 18.5784C8.94378 19.4342 10.5051 19.9333 12.182 19.9333C16.7333 19.9333 20.4367 16.2593 20.4367 11.7429C20.4367 7.22644 16.7336 3.55156 12.1818 3.55156ZM17.1398 13.9862C17.0791 13.8869 16.9189 13.8269 16.6784 13.7076C16.4376 13.5882 15.254 13.0102 15.034 12.9309C14.8133 12.8513 14.6524 12.8113 14.4922 13.0502C14.332 13.2893 13.8707 13.8269 13.73 13.9862C13.5896 14.146 13.4493 14.166 13.2084 14.0464C12.968 13.9271 12.1927 13.6747 11.2733 12.8613C10.558 12.2284 10.0749 11.4471 9.93444 11.2078C9.79422 10.9689 9.91978 10.8398 10.04 10.7209C10.1484 10.6138 10.2809 10.442 10.4011 10.3027C10.5218 10.1631 10.5618 10.0638 10.6416 9.90422C10.7222 9.74489 10.682 9.60556 10.6216 9.48578C10.5616 9.36644 10.0798 8.19133 9.87933 7.71311C9.67889 7.23533 9.47867 7.31489 9.338 7.31489C9.19778 7.31489 9.03711 7.29489 8.87667 7.29489C8.71622 7.29489 8.45533 7.35467 8.23467 7.59356C8.01422 7.83267 7.39267 8.41044 7.39267 9.58533C7.39267 10.7604 8.25467 11.8958 8.37533 12.0549C8.49556 12.214 10.0398 14.7038 12.4864 15.66C14.9333 16.6158 14.9333 16.2969 15.3747 16.2569C15.8156 16.2171 16.7982 15.6793 16.9996 15.122C17.1996 14.5638 17.1996 14.0858 17.1398 13.9862Z" fill="inherit"></path>
  </symbol>

  <symbol fill="inherit" xmlns="http://www.w3.org/2000/svg" viewBox="0 0 24 24" id="youtube-icon">
    <path fill-rule="evenodd" clip-rule="evenodd" d="M21.3903 4.11358C22.4182 4.39044 23.2288 5.20086 23.5055 6.22899C24.0197 8.10691 23.9999 12.0213 23.9999 12.0213C23.9999 12.0213 23.9999 15.9158 23.5057 17.7939C23.2288 18.8218 22.4184 19.6324 21.3903 19.9091C19.5122 20.4035 12 20.4035 12 20.4035C12 20.4035 4.50731 20.4035 2.60961 19.8895C1.58148 19.6127 0.771054 18.802 0.4942 17.7741C0 15.9158 0 12.0015 0 12.0015C0 12.0015 0 8.10691 0.4942 6.22899C0.770871 5.20104 1.60125 4.37066 2.60943 4.09399C4.48753 3.59961 11.9998 3.59961 11.9998 3.59961C11.9998 3.59961 19.5122 3.59961 21.3903 4.11358ZM15.8549 12.0016L9.60788 15.5996V8.40355L15.8549 12.0016Z" fill="inherit"></path>
  </symbol>

  <symbol fill="inherit" xmlns="http://www.w3.org/2000/svg" viewBox="0 0 19 22" id="video-play-icon">
    <path d="M18.5 10.134C19.1667 10.5189 19.1667 11.4811 18.5 11.866L2 21.3923C1.33333 21.7772 0.499999 21.2961 0.499999 20.5263L0.5 1.47372C0.5 0.703921 1.33333 0.222794 2 0.607695L18.5 10.134Z" fill="inherit"></path>
  </symbol>

  
  <symbol fill="inherit" xmlns="http://www.w3.org/2000/svg" viewBox="0 0 48 48" id="design-service-icon">
    <g clip-path="url(#clip0_1270_3714)">
      <path d="M9.9375 33.8438C7.61128 33.8438 5.71875 35.7363 5.71875 38.0625C5.71875 40.3887 7.61128 42.2812 9.9375 42.2812C12.2637 42.2812 14.1562 40.3887 14.1562 38.0625C14.1562 35.7363 12.2637 33.8438 9.9375 33.8438ZM9.9375 39.4688C9.16209 39.4688 8.53125 38.8379 8.53125 38.0625C8.53125 37.2871 9.16209 36.6562 9.9375 36.6562C10.7129 36.6562 11.3438 37.2871 11.3438 38.0625C11.3438 38.8379 10.7129 39.4688 9.9375 39.4688Z" fill="inherit"></path>
      <path d="M45.4619 28.569C46.4212 27.2708 46.598 25.4603 45.7256 23.9496L40.1035 14.118C39.131 12.4335 37.0801 11.6648 35.2507 12.1538C35.6402 10.4029 34.8759 8.52441 33.2423 7.58119L23.5 1.95656C22.1087 1.15313 20.4451 1.23544 19.1657 2.02678C18.4242 0.812437 17.0865 0 15.5625 0H4.21875C1.89253 0 0 1.89253 0 4.21875C0 5.19422 0 42.6583 0 43.7812C0 46.1075 1.89253 48 4.21875 48C5.31122 48 38.4345 48 43.7812 48C46.1075 48 48 46.1075 48 43.7812V32.4375C48 30.7085 46.954 29.2197 45.4619 28.569ZM16.9688 43.7812C16.9688 44.5567 16.3379 45.1875 15.5625 45.1875H4.21875C3.44334 45.1875 2.8125 44.5567 2.8125 43.7812C2.8125 43.1388 2.8125 31.6483 2.8125 31.0312H16.9688V43.7812ZM16.9688 28.2188H2.8125V16.875H16.9688V28.2188ZM16.9688 14.0625H2.8125V4.21875C2.8125 3.44334 3.44334 2.8125 4.21875 2.8125H15.5625C16.3379 2.8125 16.9688 3.44334 16.9688 4.21875V14.0625ZM19.7812 5.5845L20.1723 4.90716C20.5602 4.23544 21.4222 4.00444 22.0938 4.39228L31.836 10.0169C32.5077 10.4047 32.7386 11.2667 32.3498 11.9403L30.7249 14.7647C30.6842 14.8248 30.6476 14.8872 30.6169 14.9524L19.7812 33.787V5.5845ZM19.7812 39.427L32.9271 16.5767L35.6452 15.0074C36.3342 14.6096 37.2793 14.8512 37.665 15.5192L43.2871 25.3507C43.676 26.0242 43.4492 26.8877 42.7688 27.2805C41.7645 27.8618 20.7702 40.0161 19.7812 40.5886V39.427ZM45.1875 43.7812C45.1875 44.5567 44.5567 45.1875 43.7812 45.1875H19.5394C19.6893 44.7647 19.7734 44.3113 19.7798 43.8393L41.9034 31.0312H43.7812C44.5567 31.0312 45.1875 31.6621 45.1875 32.4375V43.7812Z" fill="inherit"></path>
    </g>
    <defs>
      <clipPath id="clip0_1270_3714">
        <rect width="48" height="48" fill="white"></rect>
      </clipPath>
    </defs>
  </symbol>


  <symbol fill="inherit" xmlns="http://www.w3.org/2000/svg" viewBox="0 0 48 48" id="construction-service-icon">
    <path d="M46.5938 25.4062C47.3704 25.4062 48 24.7766 48 24V13.5C48 12.7234 47.3704 12.0938 46.5938 12.0938C45.6135 12.0938 26.4628 12.0938 25.4062 12.0938V3C25.4062 2.22337 24.7766 1.59375 24 1.59375H9C8.22338 1.59375 7.59375 2.22337 7.59375 3V12.0938H1.40625C0.629625 12.0938 0 12.7234 0 13.5V24C0 24.7766 0.629625 25.4062 1.40625 25.4062H7.59375V33.0938H1.40625C0.629625 33.0938 0 33.7234 0 34.5V45C0 45.7766 0.629625 46.4062 1.40625 46.4062H46.5938C47.3704 46.4062 48 45.7766 48 45V34.5C48 33.7234 47.3704 33.0938 46.5938 33.0938H40.4062V25.4062H46.5938ZM45.1875 22.5938C43.683 22.5938 34.3936 22.5938 32.9062 22.5938V14.9062H45.1875V22.5938ZM30.0938 22.5938C28.6208 22.5938 19.3889 22.5938 17.9062 22.5938V14.9062H30.0938V22.5938ZM10.4062 4.40625H22.5938V12.0938C21.1208 12.0938 11.8889 12.0938 10.4062 12.0938V4.40625ZM2.8125 22.5938V14.9062H15.0938V22.5938C13.6058 22.5938 4.31672 22.5938 2.8125 22.5938ZM10.4062 25.4062H22.5938V33.0938C21.1208 33.0938 11.8889 33.0938 10.4062 33.0938V25.4062ZM2.8125 35.9062H15.0938V43.5938H2.8125V35.9062ZM17.9062 35.9062H30.0938V43.5938H17.9062V35.9062ZM45.1875 35.9062V43.5938H32.9062V35.9062H45.1875ZM37.5938 33.0938C36.1208 33.0938 26.8889 33.0938 25.4062 33.0938V25.4062H37.5938V33.0938Z" fill="inherit"></path>
  </symbol>

  <symbol fill="inherit" xmlns="http://www.w3.org/2000/svg" viewBox="0 0 48 48" id="repairs-service-icon">
    <path d="M39.5625 4.21875C39.5625 1.89258 37.6699 0 35.3438 0H7.21875C4.89258 0 3 1.89258 3 4.21875V12.6562C3 14.9824 4.89258 16.875 7.21875 16.875H35.3438C37.6699 16.875 39.5625 14.9824 39.5625 12.6562V11.25H40.9688C41.744 11.25 42.375 11.881 42.375 12.6562V18.2812C42.375 19.0565 41.744 19.6875 40.9688 19.6875H24.0938C21.7676 19.6875 19.875 21.5801 19.875 23.9062V28.125H18.4688C17.692 28.125 17.0625 28.7545 17.0625 29.5312V35.0797L15.6562 40.7955C14.7418 44.4529 17.5052 48 21.2812 48C25.0591 48 27.8196 44.4492 26.9077 40.8007L25.5 35.0797V29.5312C25.5 28.7545 24.8705 28.125 24.0938 28.125H22.6875V23.9062C22.6875 23.131 23.3185 22.5 24.0938 22.5H40.9688C43.2949 22.5 45.1875 20.6074 45.1875 18.2812V12.6562C45.1875 10.3301 43.2949 8.4375 40.9688 8.4375H39.5625V4.21875ZM22.6875 30.9375V33.8438H19.875V30.9375H22.6875ZM21.2812 45.1875C19.344 45.1875 17.9117 43.3693 18.386 41.4727L19.571 36.6562H22.9915L24.1776 41.4778C24.6486 43.3612 23.2255 45.1875 21.2812 45.1875ZM7.21875 2.8125H35.3438C36.119 2.8125 36.75 3.44348 36.75 4.21875V5.625H32.5312C31.1646 5.625 29.417 6.13696 27.3933 6.72949C24.6599 7.53003 21.5621 8.4375 18.4688 8.4375C15.4534 8.4375 13.3275 7.55676 11.4518 6.78003C10.0177 6.18604 8.66345 5.625 7.21875 5.625H5.8125V4.21875C5.8125 3.44348 6.44348 2.8125 7.21875 2.8125ZM36.75 12.6562C36.75 13.4315 36.119 14.0625 35.3438 14.0625H7.21875C6.44348 14.0625 5.8125 13.4315 5.8125 12.6562V8.4375H7.21875C8.10388 8.4375 9.10657 8.85278 10.3755 9.3783C12.3885 10.2122 14.8938 11.25 18.4688 11.25C21.9657 11.25 25.4132 10.24 28.184 9.42883C29.9242 8.91907 31.5681 8.4375 32.5312 8.4375H36.75V12.6562Z" fill="inherit"></path>
  </symbol>

  
  <symbol fill="inherit" xmlns="http://www.w3.org/2000/svg" viewBox="0 0 48 48" id="development-service-icon">
    <path d="M42.375 2.90625C40.2971 2.90625 38.4788 4.03866 37.5049 5.71875H1.40625C0.629625 5.71875 0 6.34837 0 7.125V43.6875C0 44.4641 0.629625 45.0938 1.40625 45.0938H42.375C45.4766 45.0938 48 42.5704 48 39.4688V8.53125C48 5.42963 45.4766 2.90625 42.375 2.90625ZM42.375 42.2812C41.8249 42.2812 3.32409 42.2812 2.8125 42.2812V8.53125H36.75V39.4688C36.75 40.2454 37.3796 40.875 38.1562 40.875C38.9329 40.875 39.5625 40.2454 39.5625 39.4688C39.5625 37.9179 40.8242 36.6562 42.375 36.6562C43.9258 36.6562 45.1875 37.9179 45.1875 39.4688C45.1875 41.0196 43.9258 42.2812 42.375 42.2812ZM45.1875 34.5986C44.3597 34.1187 43.3988 33.8438 42.375 33.8438C41.3512 33.8438 40.3903 34.1187 39.5625 34.5986V8.53125C39.5625 6.98044 40.8242 5.71875 42.375 5.71875C43.9258 5.71875 45.1875 6.98044 45.1875 8.53125V34.5986Z" fill="inherit"></path>
    <path d="M32.4375 11.3438H7.125C6.34837 11.3438 5.71875 11.9734 5.71875 12.75V38.0625C5.71875 38.8391 6.34837 39.4688 7.125 39.4688H21.1875C21.5605 39.4688 21.9181 39.3205 22.1818 39.0568C22.4456 38.7931 22.5938 38.4354 22.5938 38.0625V35.25C22.5938 33.4166 23.7693 31.8526 25.4062 31.2722V38.0625C25.4062 38.8391 26.0359 39.4688 26.8125 39.4688H32.4375C33.2141 39.4688 33.8438 38.8391 33.8438 38.0625V12.75C33.8438 11.9734 33.2141 11.3438 32.4375 11.3438ZM31.0312 36.6562H28.2188V29.625C28.2188 28.8484 27.5891 28.2188 26.8125 28.2188C22.9355 28.2188 19.7812 31.373 19.7812 35.25V36.6562H8.53125V28.2188H14.1562V32.4375C14.1562 33.2141 14.7859 33.8438 15.5625 33.8438C16.3391 33.8438 16.9688 33.2141 16.9688 32.4375V26.8125C16.9688 26.0359 16.3391 25.4062 15.5625 25.4062H8.53125V14.1562H16.9688V19.7812H12.75C11.9734 19.7812 11.3438 20.4109 11.3438 21.1875C11.3438 21.9641 11.9734 22.5938 12.75 22.5938H18.375H24C24.7766 22.5938 25.4062 21.9641 25.4062 21.1875C25.4062 20.4109 24.7766 19.7812 24 19.7812H19.7812V14.1562H31.0312V36.6562Z" fill="inherit"></path>
  </symbol>



</svg>