<svg width="0" height="0" class="hidden">
  
  <symbol fill="inherit" xmlns="http://www.w3.org/2000/svg" viewBox="0 0 24 24" id="chat-icon">
    <path fill-rule="evenodd" clip-rule="evenodd" d="M21.923 10.5674C21.7806 11.5541 21.443 12.4919 20.9428 13.3544C20.9803 13.5679 20.9995 13.7837 20.9995 14.0005C20.9995 14.7533 20.7814 15.4738 20.3774 16.1284C20.1757 16.4551 20.1238 16.838 20.1038 17.0909C20.0809 17.3808 20.0886 17.6981 20.1093 18.0028C20.1325 18.3447 20.1746 18.7036 20.2227 19.0422C19.8324 18.9284 19.4093 18.8141 19.0056 18.723C18.6698 18.6472 18.3262 18.5826 18.0149 18.5505C17.7434 18.5224 17.3511 18.5007 17.0003 18.6142C16.2332 18.8621 15.3891 19.0005 14.4995 19.0005C13.4416 19.0005 12.47 18.8127 11.6184 18.4865C11.4135 18.4957 11.2072 18.5005 10.9995 18.5005C9.7949 18.5005 8.63552 18.342 7.55078 18.0493C9.12774 19.8731 11.7274 21.0005 14.4995 21.0005C15.5825 21.0005 16.6219 20.8342 17.5797 20.5287C17.5814 20.5287 17.5845 20.5287 17.589 20.5286C17.6136 20.5281 17.6819 20.5267 17.8094 20.5399C18.01 20.5606 18.268 20.6068 18.5655 20.674C19.1578 20.8076 19.8235 21.0048 20.3423 21.1694C21.4424 21.5187 22.5084 20.5586 22.3118 19.4422C22.2271 18.9617 22.1392 18.3753 22.1047 17.8673C22.0874 17.6118 22.0855 17.4022 22.0976 17.2483C22.1026 17.1845 22.1091 17.1446 22.1132 17.1233C22.6758 16.1913 22.9995 15.1302 22.9995 14.0005C22.9995 12.7269 22.604 11.5639 21.923 10.5674Z" fill="inherit"></path>
    <path fill-rule="evenodd" clip-rule="evenodd" d="M5.59664 5.69816C4.24868 6.72895 3.49959 8.08209 3.49959 9.5C3.49959 10.207 3.68366 10.888 4.02898 11.5212C4.1605 11.7624 4.19782 12.0112 4.21116 12.1796C4.22571 12.3633 4.21845 12.552 4.20248 12.7285C4.17051 13.0819 4.09423 13.4823 4.00274 13.8766C3.89572 14.3379 3.75859 14.8299 3.61943 15.2918C4.14769 15.0998 4.72505 14.903 5.2724 14.7434C5.71477 14.6143 6.16151 14.5023 6.55911 14.4394C6.90162 14.3853 7.39864 14.3321 7.82655 14.4801C8.78688 14.8123 9.86117 15 10.9996 15C13.1468 15 15.0537 14.3333 16.4026 13.3018C17.7505 12.271 18.4996 10.9179 18.4996 9.5C18.4996 8.08209 17.7505 6.72895 16.4026 5.69816C15.0537 4.66667 13.1468 4 10.9996 4C8.85242 4 6.94552 4.66667 5.59664 5.69816ZM4.38174 4.10945C6.10925 2.78841 8.45234 2 10.9996 2C13.5468 2 15.8899 2.78841 17.6175 4.10945C19.3459 5.43119 20.4996 7.32806 20.4996 9.5C20.4996 11.6719 19.3459 13.5688 17.6175 14.8906C15.8899 16.2116 13.5468 17 10.9996 17C9.65654 17 8.37366 16.7811 7.20886 16.3826C7.2077 16.3859 7.11322 16.3767 6.87147 16.4149C6.59282 16.459 6.23713 16.5453 5.83253 16.6633C5.02707 16.8983 4.12252 17.2308 3.43353 17.4989C2.2399 17.9634 1.02395 16.8171 1.42611 15.5959C1.63926 14.9487 1.89065 14.1308 2.05449 13.4246C2.13702 13.0689 2.19058 12.7698 2.21062 12.5483C2.21758 12.4714 2.21938 12.4154 2.21897 12.3775C1.75869 11.4979 1.49959 10.5252 1.49959 9.5C1.49959 7.32806 2.6533 5.43119 4.38174 4.10945Z" fill="inherit"></path>
  </symbol>
 
  <symbol fill="inherit" xmlns="http://www.w3.org/2000/svg" viewBox="0 0 24 24" id="heart-icon">
    <path fill-rule="evenodd" clip-rule="evenodd" d="M11.9989 19.9072C7.39982 17.2878 4.83476 14.6843 3.5944 12.4254C2.32488 10.1134 2.43565 8.16615 3.14011 6.7841C4.58808 3.94337 8.70568 3.03499 11.2144 6.20797L11.9988 7.20002L12.7833 6.20802C15.2925 3.03491 19.4103 3.94344 20.8582 6.7841C21.5627 8.16613 21.6734 10.1134 20.4038 12.4254C19.1633 14.6843 16.5981 17.2878 11.9989 19.9072ZM11.9989 4.10589C8.46971 0.752278 3.26332 2.13832 1.35823 5.87584C0.31269 7.92706 0.298408 10.5782 1.8413 13.388C3.3705 16.173 6.4194 19.1125 11.5151 21.929L11.9989 22.1964L12.4826 21.9291C17.5785 19.1126 20.6276 16.173 22.1569 13.3881C23.6999 10.5782 23.6856 7.92708 22.6401 5.87584C20.735 2.13825 15.5284 0.752328 11.9989 4.10589Z" fill="inherit"></path>
  </symbol>


  <symbol fill="inherit" xmlns="http://www.w3.org/2000/svg" viewBox="0 0 24 24" id="mark-icon">
    <path fill-rule="evenodd" clip-rule="evenodd" d="M21.7071 5.29289C22.0976 5.68342 22.0976 6.31658 21.7071 6.70711L9.70711 18.7071C9.31658 19.0976 8.68342 19.0976 8.29289 18.7071L2.29289 12.7071C1.90237 12.3166 1.90237 11.6834 2.29289 11.2929C2.68342 10.9024 3.31658 10.9024 3.70711 11.2929L9 16.5858L20.2929 5.29289C20.6834 4.90237 21.3166 4.90237 21.7071 5.29289Z" fill="inherit"></path>
  </symbol>

  <symbol fill="inherit" xmlns="http://www.w3.org/2000/svg" viewBox="0 0 24 24" id="messanger-icon">
    <path d="M12 2C6.4775 2 2 6.145 2 11.2587C2 14.1725 3.45375 16.7712 5.72625 18.4688V22L9.13125 20.1313C10.04 20.3825 11.0025 20.5187 12 20.5187C17.5225 20.5187 22 16.3737 22 11.26C22 6.14625 17.5225 2 12 2ZM12.9937 14.4688L10.4475 11.7525L5.47875 14.4688L10.945 8.66625L13.5538 11.3825L18.46 8.66625L12.9937 14.4688Z" fill="inherit"></path>
  </symbol>

  <symbol fill="inherit" xmlns="http://www.w3.org/2000/svg" viewBox="0 0 24 24" id="cross-icon">
    <path fill-rule="evenodd" clip-rule="evenodd" d="M4.29289 4.29289C4.68342 3.90237 5.31658 3.90237 5.70711 4.29289L12 10.5858L18.2929 4.29289C18.6834 3.90237 19.3166 3.90237 19.7071 4.29289C20.0976 4.68342 20.0976 5.31658 19.7071 5.70711L13.4142 12L19.7071 18.2929C20.0976 18.6834 20.0976 19.3166 19.7071 19.7071C19.3166 20.0976 18.6834 20.0976 18.2929 19.7071L12 13.4142L5.70711 19.7071C5.31658 20.0976 4.68342 20.0976 4.29289 19.7071C3.90237 19.3166 3.90237 18.6834 4.29289 18.2929L10.5858 12L4.29289 5.70711C3.90237 5.31658 3.90237 4.68342 4.29289 4.29289Z" fill="inherit"></path>
  </symbol>

  <symbol fill="inherit" xmlns="http://www.w3.org/2000/svg" viewBox="0 0 24 24" id="phone-icon">
    <path fill-rule="evenodd" clip-rule="evenodd" d="M8.5 2.92188C7.67157 2.92188 7 3.59345 7 4.42188V19.5781C7 20.4066 7.67157 21.0781 8.5 21.0781H15.5C16.3284 21.0781 17 20.4066 17 19.5781V4.42188C17 3.59345 16.3284 2.92188 15.5 2.92188H15.4166L15.1731 3.50633C15.0178 3.87894 14.6537 4.12165 14.25 4.12165H9.75C9.34632 4.12165 8.98223 3.87894 8.82695 3.50633L8.58338 2.92188H8.5ZM5 4.42188C5 2.48888 6.567 0.921875 8.5 0.921875H15.5C17.433 0.921875 19 2.48888 19 4.42188V19.5781C19 21.5111 17.433 23.0781 15.5 23.0781H8.5C6.567 23.0781 5 21.5111 5 19.5781V4.42188Z" fill="inherit"></path>
  </symbol>


  <symbol fill="inherit" xmlns="http://www.w3.org/2000/svg" viewBox="0 0 24 24" id="plus-icon">
    <path fill-rule="evenodd" clip-rule="evenodd" d="M12 1C12.5523 1 13 1.44772 13 2V11H22C22.5523 11 23 11.4477 23 12C23 12.5523 22.5523 13 22 13H13V22C13 22.5523 12.5523 23 12 23C11.4477 23 11 22.5523 11 22V13H2C1.44772 13 1 12.5523 1 12C1 11.4477 1.44772 11 2 11H11V2C11 1.44772 11.4477 1 12 1Z" fill="inherit"></path>
  </symbol>

  <symbol fill="inherit" xmlns="http://www.w3.org/2000/svg" viewBox="0 0 24 24" id="arrow-up-icon">
    <path fill-rule="evenodd" clip-rule="evenodd" d="M6.79289 9.20711C6.40237 8.81658 6.40237 8.18342 6.79289 7.79289L11.2929 3.29289C11.6834 2.90237 12.3166 2.90237 12.7071 3.29289L17.2071 7.79289C17.5976 8.18342 17.5976 8.81658 17.2071 9.20711C16.8166 9.59763 16.1834 9.59763 15.7929 9.20711L13 6.41421V20C13 20.5523 12.5523 21 12 21C11.4477 21 11 20.5523 11 20V6.41421L8.20711 9.20711C7.81658 9.59763 7.18342 9.59763 6.79289 9.20711Z" fill="inherit"></path>
  </symbol>

  <symbol fill="inherit" xmlns="http://www.w3.org/2000/svg" viewBox="0 0 24 24" id="clock-icon">
    <path d="M13 6.5C13 5.94772 12.5523 5.5 12 5.5C11.4477 5.5 11 5.94772 11 6.5V12C11 12.2652 11.1054 12.5196 11.2929 12.7071L14.2929 15.7071C14.6834 16.0976 15.3166 16.0976 15.7071 15.7071C16.0976 15.3166 16.0976 14.6834 15.7071 14.2929L13 11.5858V6.5Z" fill="inherit"></path>
    <path fill-rule="evenodd" clip-rule="evenodd" d="M12 1C5.92487 1 1 5.92487 1 12C1 18.0751 5.92487 23 12 23C18.0751 23 23 18.0751 23 12C23 5.92487 18.0751 1 12 1ZM3 12C3 7.02944 7.02944 3 12 3C16.9706 3 21 7.02944 21 12C21 16.9706 16.9706 21 12 21C7.02944 21 3 16.9706 3 12Z" fill="inherit"></path>
  </symbol>

  <symbol fill="inherit" xmlns="http://www.w3.org/2000/svg" viewBox="0 0 24 24" id="minus-icon">
    <path fill-rule="evenodd" clip-rule="evenodd" d="M1 12C1 11.4477 1.44772 11 2 11V12V13C1.44772 13 1 12.5523 1 12ZM22 12L21.9999 13H2V12V11H21.9994L22 12ZM22 12L21.9999 13C22.5522 13 23 12.5523 23 12C23 11.4477 22.5517 11 21.9994 11L22 12Z" fill="inherit"></path>
  </symbol>

  <symbol fill="inherit" xmlns="http://www.w3.org/2000/svg" viewBox="0 0 24 24" id="facebook-icon">
    <path d="M17.5628 1.00458L14.7856 1C11.6654 1 9.64903 3.12509 9.64903 6.41423V8.91055H6.85662C6.61532 8.91055 6.41992 9.1115 6.41992 9.35937V12.9763C6.41992 13.2241 6.61554 13.4249 6.85662 13.4249H9.64903V22.5514C9.64903 22.7993 9.84443 23 10.0857 23H13.729C13.9703 23 14.1657 22.799 14.1657 22.5514V13.4249H17.4307C17.672 13.4249 17.8674 13.2241 17.8674 12.9763L17.8688 9.35937C17.8688 9.24036 17.8226 9.12638 17.7409 9.04215C17.6591 8.95793 17.5477 8.91055 17.4318 8.91055H14.1657V6.79439C14.1657 5.77728 14.4017 5.26094 15.6915 5.26094L17.5624 5.26025C17.8035 5.26025 17.9989 5.0593 17.9989 4.81166V1.45317C17.9989 1.20576 17.8037 1.00504 17.5628 1.00458Z" fill="inherit"></path>
  </symbol>

  
  <symbol fill="inherit" xmlns="http://www.w3.org/2000/svg" viewBox="0 0 24 24" id="twitter-icon">
    <path d="M22.5 5.77233C21.7271 6.10027 20.8978 6.32267 20.0264 6.42196C20.9161 5.91181 21.5972 5.10263 21.92 4.1414C21.0854 4.61383 20.1642 4.95688 19.1826 5.14285C18.3966 4.33994 17.2785 3.83984 16.0384 3.83984C13.6593 3.83984 11.7303 5.68691 11.7303 7.9637C11.7303 8.2866 11.7683 8.60199 11.8418 8.90357C8.26201 8.73141 5.08768 7.08917 2.96314 4.59372C2.59176 5.20189 2.38049 5.91053 2.38049 6.66697C2.38049 8.09814 3.14161 9.36093 4.2964 10.0997C3.5904 10.0771 2.92639 9.89116 2.34508 9.58205V9.63357C2.34508 11.6314 3.83056 13.2988 5.80024 13.6783C5.43936 13.7713 5.05882 13.8228 4.66514 13.8228C4.38696 13.8228 4.11794 13.7964 3.85417 13.7461C4.40267 15.3859 5.99315 16.5783 7.87756 16.611C6.40388 17.7167 4.54573 18.3739 2.52749 18.3739C2.17976 18.3739 1.83724 18.3537 1.5 18.3173C3.40671 19.4896 5.67036 20.1732 8.10327 20.1732C16.028 20.1732 20.3597 13.8881 20.3597 8.43741L20.3453 7.90341C21.1917 7.32537 21.9239 6.59912 22.5 5.77233Z" fill="inherit"></path>
  </symbol>


  <symbol fill="inherit" xmlns="http://www.w3.org/2000/svg" viewBox="0 0 24 24" id="closedeye-icon">
    <path fill-rule="evenodd" clip-rule="evenodd" d="M8.21776 18.959C8.74757 19.115 9.30349 18.8119 9.45944 18.2821L10.1859 15.8142C11.3895 16.0615 12.611 16.0615 13.8147 15.8143L14.5408 18.282C14.6967 18.8118 15.2526 19.115 15.7824 18.9591C16.3122 18.8032 16.6154 18.2473 16.4595 17.7175L15.7209 15.2074C16.7093 14.7775 17.6626 14.1765 18.5643 13.413L20.261 15.2748C20.633 15.683 21.2655 15.7123 21.6737 15.3403C22.0819 14.9683 22.1112 14.3358 21.7392 13.9276L19.9958 12.0146C20.6512 11.2825 21.2709 10.4533 21.8481 9.52974C22.1408 9.0614 21.9985 8.44445 21.5301 8.15174C21.0618 7.85903 20.4448 8.00141 20.1521 8.46974C19.4568 9.58221 18.7082 10.5192 17.928 11.2869C16.731 12.4644 15.4632 13.2404 14.1935 13.6493C12.7435 14.1164 11.2572 14.1164 9.80713 13.6493C8.53747 13.2404 7.26954 12.4644 6.0726 11.2869C5.29219 10.5191 4.54341 9.58218 3.84813 8.46974C3.55542 8.0014 2.93847 7.85903 2.47013 8.15174C2.0018 8.44445 1.85943 9.0614 2.15214 9.52974C2.72945 10.4534 3.34927 11.2825 4.00467 12.0146L2.26107 13.9275C1.88903 14.3357 1.91832 14.9682 2.32649 15.3402C2.73467 15.7123 3.36715 15.683 3.73919 15.2748L5.43627 13.4129C6.33794 14.1764 7.29125 14.7774 8.27966 15.2074L7.54083 17.7174C7.38488 18.2472 7.68795 18.8031 8.21776 18.959Z" fill="inherit"></path>
  </symbol>

  <symbol fill="inherit" xmlns="http://www.w3.org/2000/svg" viewBox="0 0 24 24" id="search-icon">
    <path fill-rule="evenodd" clip-rule="evenodd" d="M10.875 3.25C6.66383 3.25 3.25 6.66383 3.25 10.875C3.25 15.0862 6.66383 18.5 10.875 18.5C12.9789 18.5 14.8822 17.6492 16.2628 16.2706C17.646 14.8893 18.5 12.9828 18.5 10.875C18.5 6.66383 15.0862 3.25 10.875 3.25ZM1.25 10.875C1.25 5.55926 5.55926 1.25 10.875 1.25C16.1907 1.25 20.5 5.55926 20.5 10.875C20.5 13.1742 19.6928 15.2863 18.348 16.9413L22.4565 21.0422C22.8473 21.4324 22.8479 22.0656 22.4578 22.4565C22.0676 22.8473 21.4344 22.8479 21.0435 22.4578L16.933 18.3547C15.2792 19.6955 13.1703 20.5 10.875 20.5C5.55926 20.5 1.25 16.1907 1.25 10.875Z" fill="inherit"></path>
  </symbol>

  <symbol fill="inherit" xmlns="http://www.w3.org/2000/svg" viewBox="0 0 24 24" id="burger-menu">
    <path fill-rule="evenodd" clip-rule="evenodd" d="M1 12C1 11.4477 1.44772 11 2 11H22C22.5523 11 23 11.4477 23 12C23 12.5523 22.5523 13 22 13H2C1.44772 13 1 12.5523 1 12Z" fill="inherit"></path>
    <path fill-rule="evenodd" clip-rule="evenodd" d="M1 18C1 17.4477 1.44772 17 2 17H22C22.5523 17 23 17.4477 23 18C23 18.5523 22.5523 19 22 19H2C1.44772 19 1 18.5523 1 18Z" fill="inherit"></path>
    <path fill-rule="evenodd" clip-rule="evenodd" d="M1 6C1 5.44772 1.44772 5 2 5H22C22.5523 5 23 5.44772 23 6C23 6.55228 22.5523 7 22 7H2C1.44772 7 1 6.55228 1 6Z" fill="inherit"></path>
  </symbol>

  
  <symbol fill="inherit" xmlns="http://www.w3.org/2000/svg" viewBox="0 0 24 24" id="whatsapp-icon">
    <path d="M22 11.7424C22 17.1231 17.6047 21.4849 12.1818 21.4849C10.4602 21.4849 8.84289 21.0449 7.43578 20.2727L2 22L3.77222 16.7729C2.87822 15.3049 2.36333 13.5831 2.36333 11.7424C2.36333 6.36178 6.75911 2 12.1818 2C17.6051 2 22 6.36178 22 11.7424ZM12.1818 3.55156C7.62978 3.55156 3.92711 7.226 3.92711 11.7424C3.92711 13.5347 4.51133 15.1944 5.49956 16.5447L4.46822 19.5867L7.64044 18.5784C8.94378 19.4342 10.5051 19.9333 12.182 19.9333C16.7333 19.9333 20.4367 16.2593 20.4367 11.7429C20.4367 7.22644 16.7336 3.55156 12.1818 3.55156ZM17.1398 13.9862C17.0791 13.8869 16.9189 13.8269 16.6784 13.7076C16.4376 13.5882 15.254 13.0102 15.034 12.9309C14.8133 12.8513 14.6524 12.8113 14.4922 13.0502C14.332 13.2893 13.8707 13.8269 13.73 13.9862C13.5896 14.146 13.4493 14.166 13.2084 14.0464C12.968 13.9271 12.1927 13.6747 11.2733 12.8613C10.558 12.2284 10.0749 11.4471 9.93444 11.2078C9.79422 10.9689 9.91978 10.8398 10.04 10.7209C10.1484 10.6138 10.2809 10.442 10.4011 10.3027C10.5218 10.1631 10.5618 10.0638 10.6416 9.90422C10.7222 9.74489 10.682 9.60556 10.6216 9.48578C10.5616 9.36644 10.0798 8.19133 9.87933 7.71311C9.67889 7.23533 9.47867 7.31489 9.338 7.31489C9.19778 7.31489 9.03711 7.29489 8.87667 7.29489C8.71622 7.29489 8.45533 7.35467 8.23467 7.59356C8.01422 7.83267 7.39267 8.41044 7.39267 9.58533C7.39267 10.7604 8.25467 11.8958 8.37533 12.0549C8.49556 12.214 10.0398 14.7038 12.4864 15.66C14.9333 16.6158 14.9333 16.2969 15.3747 16.2569C15.8156 16.2171 16.7982 15.6793 16.9996 15.122C17.1996 14.5638 17.1996 14.0858 17.1398 13.9862Z" fill="inherit"></path>
  </symbol>

  <symbol fill="inherit" xmlns="http://www.w3.org/2000/svg" viewBox="0 0 24 24" id="youtube-icon">
    <path fill-rule="evenodd" clip-rule="evenodd" d="M21.3903 4.11358C22.4182 4.39044 23.2288 5.20086 23.5055 6.22899C24.0197 8.10691 23.9999 12.0213 23.9999 12.0213C23.9999 12.0213 23.9999 15.9158 23.5057 17.7939C23.2288 18.8218 22.4184 19.6324 21.3903 19.9091C19.5122 20.4035 12 20.4035 12 20.4035C12 20.4035 4.50731 20.4035 2.60961 19.8895C1.58148 19.6127 0.771054 18.802 0.4942 17.7741C0 15.9158 0 12.0015 0 12.0015C0 12.0015 0 8.10691 0.4942 6.22899C0.770871 5.20104 1.60125 4.37066 2.60943 4.09399C4.48753 3.59961 11.9998 3.59961 11.9998 3.59961C11.9998 3.59961 19.5122 3.59961 21.3903 4.11358ZM15.8549 12.0016L9.60788 15.5996V8.40355L15.8549 12.0016Z" fill="inherit"></path>
  </symbol>
</svg>